<svg xmlns="http://www.w3.org/2000/svg" width="393" height="406" viewBox="0 0 393 406">
<g>
<path d="M 49.43 210.67 C45.86,216.38 44.34,218.00 42.52,218.00 L 40.18 218.00 L 41.62 212.25 C42.41,209.09 43.53,203.57 44.10,200.00 C45.68,190.17 49.96,166.40 51.57,158.50 C52.35,154.65 54.12,144.75 55.49,136.50 C58.46,118.63 60.52,107.30 62.02,100.50 C62.63,97.75 63.54,92.57 64.05,89.00 C67.54,64.35 76.49,48.05 93.50,35.36 C107.33,25.04 116.76,23.00 150.75,23.00 L 174.00 23.00 L 174.00 25.82 C174.00,29.55 172.15,39.98 171.04,42.50 C168.94,47.28 168.00,51.65 168.00,56.63 C168.00,61.80 158.97,115.95 154.97,134.78 C153.89,139.88 153.00,145.32 153.00,146.87 C153.00,151.52 150.59,152.61 136.00,154.51 C128.24,155.52 121.44,156.94 120.00,157.85 C118.62,158.72 114.12,160.84 110.00,162.55 C93.00,169.62 81.27,177.04 69.01,188.50 C57.28,199.47 54.32,202.81 49.43,210.67 ZM 21.95 386.56 C20.43,388.39 13.61,388.44 12.10,386.62 C11.36,385.73 11.17,383.16 11.56,379.37 C12.16,373.49 17.12,344.19 21.01,323.50 C22.14,317.45 23.48,309.75 23.98,306.38 C24.83,300.66 27.95,287.31 30.03,280.50 C30.53,278.85 31.91,274.35 33.08,270.50 C37.54,255.90 49.21,230.78 55.61,222.00 C70.51,201.53 80.59,191.69 95.76,182.78 C112.31,173.05 116.55,171.40 139.00,165.93 C147.83,163.78 151.30,163.57 188.50,163.00 C229.71,162.36 230.01,162.33 239.50,158.09 C240.60,157.60 243.02,156.63 244.88,155.93 C246.74,155.23 250.62,152.23 253.52,149.26 C258.59,144.07 258.84,143.55 260.51,134.69 C262.65,123.32 265.40,112.98 267.10,109.86 L 268.39 107.50 L 269.45 111.00 C270.03,112.93 270.89,115.10 271.36,115.83 C272.08,116.95 271.11,126.75 269.38,135.78 C269.15,137.03 267.35,139.82 265.39,141.99 C263.44,144.15 262.11,146.37 262.45,146.92 C263.07,147.92 257.58,158.52 255.90,159.56 C255.41,159.87 255.00,160.98 255.00,162.04 C255.00,163.25 253.62,164.64 251.25,165.84 C249.19,166.87 244.12,169.67 240.00,172.05 L 232.50 176.38 L 208.00 176.62 C173.66,176.95 155.87,177.81 146.00,179.62 C120.13,184.35 105.04,191.30 87.57,206.54 C76.43,216.25 66.42,230.12 57.08,248.80 C52.84,257.27 44.72,281.40 42.02,293.60 C40.81,299.04 38.73,306.32 37.41,309.76 C36.08,313.20 35.01,317.25 35.01,318.76 C35.02,320.27 34.37,324.65 33.58,328.50 C31.55,338.30 30.02,347.02 28.48,357.50 C26.57,370.49 23.33,384.89 21.95,386.56 ZM 294.22 346.41 C287.60,352.96 281.55,358.67 280.76,359.11 C279.73,359.69 274.97,355.52 263.53,344.00 L 247.73 328.09 L 248.44 321.84 C248.83,318.41 249.53,314.90 250.01,314.05 C250.48,313.20 257.37,306.03 265.31,298.13 C275.81,287.69 280.13,284.00 281.13,284.63 C281.88,285.11 288.24,291.38 295.25,298.58 C308.20,311.86 310.08,315.03 306.69,317.85 C305.44,318.88 299.28,313.79 284.14,299.23 C282.30,297.45 280.28,296.00 279.65,296.00 C278.35,296.00 253.96,321.16 254.29,322.16 C254.87,323.98 279.02,348.00 280.26,348.00 C281.05,348.00 285.41,343.95 289.94,339.00 C299.46,328.61 303.11,325.72 305.52,326.65 C306.83,327.15 307.11,328.14 306.74,330.90 C306.33,333.91 304.28,336.45 294.22,346.41 ZM 331.27 123.15 C330.65,123.78 330.05,124.39 329.48,124.97 C322.21,132.33 318.61,135.97 315.03,135.95 C311.24,135.94 307.47,131.82 299.39,123.69 C292.73,116.98 286.77,110.52 286.14,109.32 C284.79,106.73 284.70,100.99 285.93,95.68 C286.66,92.56 289.34,89.44 300.54,78.68 C308.09,71.43 314.74,65.32 315.32,65.11 C316.84,64.53 343.94,92.91 344.67,95.84 C345.12,97.61 344.76,98.70 343.41,99.69 C341.73,100.92 341.31,100.77 339.52,98.28 C338.42,96.75 336.61,94.73 335.51,93.78 C334.40,92.83 329.73,88.45 325.13,84.03 C320.52,79.61 316.24,76.00 315.61,76.00 C314.56,76.00 294.04,96.26 291.07,100.24 C289.92,101.78 291.17,103.44 302.01,114.74 C308.74,121.76 314.61,127.64 315.04,127.81 C315.48,127.98 321.47,122.39 328.34,115.41 C339.73,103.82 340.98,102.84 342.42,104.28 C345.74,107.59 344.33,109.97 331.27,123.15 ZM 191.80 241.80 C191.14,242.46 189.90,242.99 189.05,242.98 C188.20,242.96 181.48,236.94 174.11,229.59 C161.97,217.46 160.79,215.97 161.40,213.53 C161.80,211.97 167.71,205.16 175.59,197.21 C186.94,185.75 189.37,183.74 190.80,184.64 C195.00,187.27 193.60,189.86 181.46,202.04 C174.93,208.58 170.04,214.26 170.42,214.86 C170.78,215.46 176.01,220.75 182.04,226.63 C192.76,237.09 194.23,239.37 191.80,241.80 ZM 348.46 81.65 C347.45,82.39 346.37,82.99 346.06,82.98 C344.97,82.93 322.00,59.46 322.00,58.39 C322.00,56.52 334.74,45.00 336.80,45.00 C337.89,45.00 340.45,46.48 342.49,48.30 C345.23,50.74 346.10,52.23 345.84,54.05 C345.56,56.07 344.99,56.46 342.58,56.29 C340.98,56.17 339.37,55.60 339.00,55.01 C338.10,53.54 335.74,54.59 334.13,57.16 C332.92,59.10 333.22,59.70 337.74,64.22 L 342.67 69.15 L 345.82 66.50 C347.54,65.05 349.42,64.14 349.98,64.49 C351.28,65.29 351.32,72.68 350.03,73.48 C349.50,73.81 349.35,75.48 349.69,77.19 C350.16,79.55 349.86,80.63 348.46,81.65 ZM 301.25 152.90 C298.09,155.69 294.60,157.98 293.50,157.99 C292.40,157.99 289.52,156.19 287.10,153.98 L 282.70 149.95 L 284.99 147.52 C287.27,145.09 289.82,145.28 291.50,148.01 C292.41,149.47 293.42,149.24 296.02,146.98 L 298.34 144.97 L 295.42 141.73 C293.81,139.96 291.41,137.48 290.07,136.23 L 287.64 133.96 L 284.49 137.01 C280.48,140.90 277.82,140.28 278.66,135.66 C278.98,133.92 279.86,131.50 280.62,130.29 C281.38,129.07 282.00,126.69 282.00,125.00 C282.00,118.92 284.59,120.13 296.09,131.59 C309.40,144.86 309.57,145.57 301.25,152.90 ZM 312.55 295.53 C310.35,300.81 307.62,300.18 300.22,292.72 C296.80,289.27 294.00,285.91 294.00,285.25 C294.00,284.59 292.65,283.35 291.00,282.50 C286.25,280.04 286.90,276.51 293.25,270.28 C300.72,262.95 302.39,262.79 308.33,268.82 L 313.16 273.73 L 310.50 275.82 C308.30,277.55 307.51,277.71 305.92,276.72 C304.86,276.06 304.00,275.18 304.00,274.76 C304.00,273.20 301.28,274.08 299.19,276.30 L 297.03 278.60 L 301.91 283.41 C305.94,287.38 307.11,288.04 308.62,287.19 C311.02,285.85 314.00,287.44 314.00,290.07 C314.00,291.17 313.35,293.62 312.55,295.53 ZM 164.13 197.03 C159.08,201.97 154.18,205.98 153.23,205.95 C148.84,205.83 139.00,195.70 139.00,191.31 C139.00,189.45 139.96,188.47 143.25,186.97 C150.65,183.61 153.65,184.88 150.10,189.86 L 148.07 192.71 L 150.55 195.05 L 153.04 197.38 L 157.27 193.37 C164.29,186.71 168.04,184.00 170.24,184.00 C171.39,184.00 172.04,184.30 171.68,184.66 C171.31,185.02 171.53,185.94 172.16,186.69 C173.07,187.79 171.45,189.88 164.13,197.03 ZM 148.16 241.25 C147.93,243.80 143.78,243.46 141.17,240.69 C138.21,237.53 138.42,233.97 141.75,230.93 C143.26,229.55 145.92,226.75 147.66,224.71 C149.41,222.67 151.66,221.00 152.68,221.00 C153.70,221.00 158.79,225.27 163.99,230.49 C172.75,239.28 173.32,240.10 171.81,241.62 C169.34,244.09 166.17,242.77 159.58,236.54 C156.36,233.49 153.42,231.00 153.04,231.00 C151.53,231.00 147.98,235.78 148.14,237.58 C148.24,238.64 148.25,240.29 148.16,241.25 ZM 270.00 367.08 C270.00,367.59 268.76,367.99 267.25,367.98 C265.16,367.96 263.21,366.51 259.18,361.98 C253.51,355.60 251.38,354.81 248.50,358.00 C246.30,360.43 244.41,360.56 243.18,358.36 C242.07,356.37 242.75,353.11 244.78,350.77 C245.97,349.39 246.03,348.74 245.06,347.57 C243.59,345.80 244.47,342.42 246.61,341.60 C248.97,340.69 250.72,342.04 261.37,352.89 C268.27,359.94 271.05,363.44 270.62,364.56 C270.28,365.44 270.00,366.58 270.00,367.08 ZM 265.37 286.37 C261.72,290.02 258.46,292.96 258.12,292.92 C253.59,292.35 254.02,288.02 259.14,282.46 C262.91,278.37 263.15,277.81 261.77,276.23 C260.94,275.28 260.04,273.83 259.77,273.00 C259.13,271.09 260.70,268.00 262.29,268.01 C264.23,268.03 272.00,275.97 272.00,277.95 C272.00,278.93 269.02,282.72 265.37,286.37 ZM 329.61 149.23 C327.98,150.32 325.21,150.16 324.46,148.94 C323.15,146.82 325.09,141.29 328.40,137.68 C331.95,133.81 332.66,133.50 334.86,134.89 C335.99,135.61 335.96,136.14 334.72,138.12 C333.90,139.43 332.66,142.30 331.97,144.50 C331.28,146.70 330.21,148.83 329.61,149.23 ZM 302.38 65.12 L 302.28 65.22 C297.89,69.66 296.66,70.91 295.57,70.79 C295.13,70.74 294.72,70.48 294.14,70.11 C292.59,69.13 293.88,66.65 299.76,59.25 C303.52,54.52 305.38,53.97 307.06,57.12 C308.07,59.00 307.55,59.90 302.38,65.12 ZM 121.32 241.34 C119.65,243.02 111.00,241.08 111.00,239.03 C111.00,238.46 110.18,238.00 109.19,238.00 C106.95,238.00 102.74,234.23 103.54,232.94 C104.52,231.34 106.52,231.88 111.10,234.98 C113.52,236.62 116.46,237.97 117.63,237.98 C119.92,238.00 122.40,240.26 121.32,241.34 ZM 191.37 215.27 C191.64,216.77 191.78,217.97 191.68,217.93 C187.06,216.23 185.64,213.73 188.64,212.58 C190.67,211.81 190.76,211.90 191.37,215.27 Z" fill="rgb(75,182,190)"/>
<path d="M 234.60 175.17 L 240.00 172.05 C244.12,169.67 249.19,166.87 251.25,165.84 C253.62,164.64 255.00,163.25 255.00,162.04 C255.00,160.98 255.41,159.87 255.90,159.56 C257.58,158.52 263.07,147.92 262.45,146.92 C262.11,146.37 263.44,144.15 265.39,141.99 C267.35,139.82 269.15,137.03 269.38,135.78 C271.11,126.75 272.08,116.95 271.36,115.83 C270.89,115.10 270.03,112.93 269.45,111.00 L 268.39 107.50 L 267.10 109.86 C265.40,112.98 262.65,123.32 260.51,134.69 C258.84,143.55 258.59,144.07 253.52,149.26 C250.62,152.23 246.74,155.23 244.88,155.93 C243.02,156.63 240.60,157.60 239.50,158.09 C230.01,162.33 229.71,162.36 188.50,163.00 C165.63,163.35 155.51,163.56 149.06,164.18 C155.52,163.56 165.64,163.35 188.50,162.99 C234.60,162.26 234.68,162.25 244.95,153.20 C255.58,143.85 256.80,140.67 262.50,107.50 C267.16,80.36 268.77,72.64 270.97,66.85 C277.11,50.67 288.94,37.20 303.16,30.19 C317.40,23.16 320.10,22.71 350.87,22.25 C365.92,22.02 378.61,22.21 379.07,22.67 C379.53,23.12 370.54,23.37 359.08,23.21 L 338.27 22.92 L 337.63 26.09 C337.28,27.83 337.00,30.94 337.00,33.00 L 337.00 36.74 L 329.75 37.45 C316.30,38.77 302.05,46.13 294.32,55.75 C285.58,66.63 283.29,73.89 277.51,109.00 C275.56,120.82 273.04,133.65 271.90,137.50 C266.72,155.05 255.49,167.52 239.42,173.57 C237.70,174.21 236.21,174.74 234.60,175.17 ZM 196.26 241.60 C196.69,243.85 196.44,244.00 192.07,244.00 L 187.41 244.00 L 173.21 229.67 C165.39,221.79 159.00,214.86 159.00,214.27 C159.00,213.68 164.08,208.31 170.30,202.35 C176.51,196.38 183.11,189.59 184.97,187.25 C187.68,183.83 188.96,183.00 191.55,183.00 C194.26,183.00 194.85,183.43 195.32,185.75 C195.81,188.21 194.54,189.84 183.44,201.01 C176.60,207.90 171.00,213.79 171.00,214.10 C171.00,214.42 176.58,220.20 183.40,226.94 C190.50,233.96 196.00,240.23 196.26,241.60 ZM 191.80 241.80 C194.23,239.37 192.76,237.09 182.04,226.63 C176.01,220.75 170.78,215.46 170.42,214.86 C170.04,214.26 174.93,208.58 181.46,202.04 C193.60,189.86 195.00,187.27 190.80,184.64 C189.37,183.74 186.94,185.75 175.59,197.21 C167.71,205.16 161.80,211.97 161.40,213.53 C160.79,215.97 161.97,217.46 174.11,229.59 C181.48,236.94 188.20,242.96 189.05,242.98 C189.90,242.99 191.14,242.46 191.80,241.80 ZM 212.00 213.96 C212.00,214.28 208.50,218.02 204.23,222.27 L 196.45 230.00 L 188.49 221.99 L 180.53 213.98 L 195.82 198.70 L 203.91 206.04 C208.36,210.08 212.00,213.64 212.00,213.96 ZM 110.46 246.92 C102.25,248.44 102.00,248.39 102.00,245.11 C102.00,243.52 101.28,238.76 100.41,234.53 C99.54,230.30 98.99,226.67 99.21,226.46 C99.42,226.25 104.39,228.03 110.26,230.42 C120.87,234.75 132.33,241.59 132.14,243.50 C132.09,244.05 128.50,244.80 124.17,245.17 C119.84,245.54 113.67,246.33 110.46,246.92 ZM 274.00 277.58 C274.00,278.11 269.05,283.47 263.00,289.50 C256.95,295.53 252.00,299.99 252.00,299.40 C252.00,298.81 252.51,295.67 253.14,292.42 C254.05,287.68 255.08,285.66 258.33,282.26 L 262.40 278.02 L 259.62 275.13 C256.20,271.55 256.29,267.16 259.81,265.87 C261.80,265.14 262.98,265.85 268.06,270.83 C271.33,274.02 274.00,277.06 274.00,277.58 ZM 21.95 386.56 C23.33,384.89 26.57,370.49 28.48,357.50 C30.02,347.02 31.55,338.30 33.58,328.50 C34.37,324.65 35.02,320.27 35.01,318.76 C35.01,317.25 36.08,313.20 37.41,309.76 C38.24,307.59 39.37,303.91 40.40,300.12 C39.44,304.48 39.01,307.59 39.37,308.53 C39.64,309.23 39.02,313.11 37.99,317.15 C36.25,324.00 33.63,337.94 30.97,354.50 C30.35,358.35 28.73,367.48 27.38,374.79 C26.03,382.09 25.20,388.51 25.52,389.04 C25.89,389.63 22.79,390.00 17.56,390.00 C12.85,390.00 9.00,389.64 9.00,389.19 C9.00,388.75 10.08,382.79 11.41,375.94 C12.74,369.10 14.97,356.98 16.38,349.00 C17.03,345.32 17.83,340.89 18.61,336.60 C15.32,354.91 12.04,374.66 11.56,379.37 C11.17,383.16 11.36,385.73 12.10,386.62 C13.61,388.44 20.43,388.39 21.95,386.56 ZM 331.27 123.15 C344.33,109.97 345.74,107.59 342.42,104.28 C340.98,102.84 339.73,103.82 328.34,115.41 C326.05,117.74 323.85,119.91 321.93,121.77 C329.38,114.42 340.43,103.05 340.75,102.17 C340.89,101.79 335.16,95.64 328.01,88.51 L 315.51 76.03 C315.55,76.01 315.59,76.00 315.61,76.00 C316.24,76.00 320.52,79.61 325.13,84.03 C329.73,88.45 334.40,92.83 335.51,93.78 C336.61,94.73 338.42,96.75 339.52,98.28 C341.31,100.77 341.73,100.92 343.41,99.69 C344.76,98.70 345.12,97.61 344.67,95.84 C344.21,94.01 333.48,82.26 325.11,73.83 C327.10,75.75 329.28,77.88 331.55,80.14 L 346.94 95.50 L 343.77 111.50 L 329.65 125.75 C321.88,133.59 315.28,140.00 314.97,140.00 C314.67,140.00 307.37,132.91 298.77,124.24 L 283.11 108.47 L 284.96 100.17 L 285.60 97.32 C284.73,102.13 284.93,106.99 286.14,109.32 C286.77,110.52 292.73,116.98 299.39,123.69 C307.47,131.82 311.24,135.94 315.03,135.95 C318.61,135.97 322.21,132.33 329.48,124.97 C330.05,124.39 330.65,123.78 331.27,123.15 ZM 265.37 286.37 C269.02,282.72 272.00,278.93 272.00,277.95 C272.00,275.97 264.23,268.03 262.29,268.01 C260.70,268.00 259.13,271.09 259.77,273.00 C260.04,273.83 260.94,275.28 261.77,276.23 C263.15,277.81 262.91,278.37 259.14,282.46 C254.02,288.02 253.59,292.35 258.12,292.92 C258.46,292.96 261.72,290.02 265.37,286.37 ZM 331.50 149.25 C330.57,151.86 329.43,154.00 328.97,154.00 C328.51,154.00 326.45,151.95 324.40,149.44 L 320.66 144.88 L 329.53 135.97 C334.41,131.07 338.54,127.21 338.72,127.39 C339.01,127.68 336.83,134.28 331.50,149.25 ZM 148.16 241.25 C148.25,240.29 148.24,238.64 148.14,237.58 C148.11,237.26 148.20,236.85 148.37,236.38 C148.63,237.03 149.41,237.86 150.84,239.34 C152.60,241.15 153.73,242.94 153.35,243.32 C152.97,243.69 150.70,244.00 148.29,244.00 C144.58,244.00 143.29,243.41 139.71,240.04 L 135.50 236.08 L 144.25 227.30 L 153.00 218.51 L 165.75 231.26 L 178.49 244.00 L 170.75 244.00 C165.10,244.00 163.00,243.65 163.00,242.71 C163.00,241.18 153.89,232.00 152.37,232.00 C151.92,232.00 151.04,232.54 150.20,233.30 C151.21,232.02 152.34,231.00 153.04,231.00 C153.42,231.00 156.36,233.49 159.58,236.54 C166.17,242.77 169.34,244.09 171.81,241.62 C173.32,240.10 172.75,239.28 163.99,230.49 C158.79,225.27 153.70,221.00 152.68,221.00 C151.66,221.00 149.41,222.67 147.66,224.71 C145.92,226.75 143.26,229.55 141.75,230.93 C138.42,233.97 138.21,237.53 141.17,240.69 C143.78,243.46 147.93,243.80 148.16,241.25 ZM 164.13 197.03 C171.45,189.88 173.07,187.79 172.16,186.69 C171.53,185.94 171.31,185.02 171.68,184.66 C172.04,184.30 171.39,184.00 170.24,184.00 C168.04,184.00 164.29,186.71 157.27,193.37 L 153.42 197.02 L 158.52 191.98 C161.53,189.01 163.88,185.89 163.75,185.04 C163.54,183.78 164.96,183.45 171.50,183.21 L 179.50 182.93 L 166.51 195.96 C159.37,203.13 153.29,209.00 152.99,209.00 C152.70,209.00 148.66,205.18 144.02,200.52 L 135.59 192.04 L 138.40 189.11 C140.65,186.75 142.39,186.03 147.17,185.48 C147.20,185.48 147.24,185.47 147.28,185.47 C146.14,185.77 144.79,186.27 143.25,186.97 C139.96,188.47 139.00,189.45 139.00,191.31 C139.00,195.70 148.84,205.83 153.23,205.95 C154.18,205.98 159.08,201.97 164.13,197.03 ZM 312.55 295.53 C313.35,293.62 314.00,291.17 314.00,290.07 C314.00,287.44 311.02,285.85 308.62,287.19 C308.40,287.32 308.18,287.41 307.97,287.46 L 310.98 284.52 C313.17,282.38 315.15,280.83 315.39,281.06 C315.62,281.30 314.86,286.56 313.70,292.75 C312.54,298.94 311.34,304.00 311.03,304.00 C309.71,304.00 286.00,279.33 286.00,277.96 C286.00,276.22 299.98,262.00 301.69,262.00 C302.32,262.00 305.12,264.59 307.92,267.75 L 313.01 273.50 L 312.97 273.54 L 308.33 268.82 C302.39,262.79 300.72,262.95 293.25,270.28 C286.90,276.51 286.25,280.04 291.00,282.50 C292.65,283.35 294.00,284.59 294.00,285.25 C294.00,285.91 296.80,289.27 300.22,292.72 C307.62,300.18 310.35,300.81 312.55,295.53 ZM 301.25 152.90 C309.57,145.57 309.40,144.86 296.09,131.59 C284.59,120.13 282.00,118.92 282.00,125.00 C282.00,126.69 281.38,129.07 280.62,130.29 C279.86,131.50 278.98,133.92 278.66,135.66 C277.82,140.28 280.48,140.90 284.49,137.01 L 287.64 133.96 L 289.12 135.34 C288.75,135.09 288.47,135.00 288.23,135.00 C287.76,135.00 286.05,136.39 284.44,138.09 C282.82,139.79 280.18,142.13 278.57,143.29 C275.77,145.30 275.67,145.31 276.43,143.45 C277.68,140.41 280.79,127.03 281.52,121.57 L 282.18 116.64 L 295.54 130.57 C302.89,138.23 308.92,144.94 308.95,145.48 C308.98,146.01 305.75,149.73 301.78,153.73 C297.80,157.73 294.19,161.00 293.75,161.00 C292.30,161.00 284.23,152.99 283.72,151.04 C283.71,150.98 283.69,150.92 283.68,150.85 L 287.10 153.98 C289.52,156.19 292.40,157.99 293.50,157.99 C294.60,157.98 298.09,155.69 301.25,152.90 ZM 329.61 149.23 C330.21,148.83 331.28,146.70 331.97,144.50 C332.66,142.30 333.90,139.43 334.72,138.12 C335.96,136.14 335.99,135.61 334.86,134.89 C332.66,133.50 331.95,133.81 328.40,137.68 C325.09,141.29 323.15,146.82 324.46,148.94 C325.21,150.16 327.98,150.32 329.61,149.23 ZM 348.46 81.65 C349.21,81.10 349.64,80.54 349.81,79.78 C349.79,81.17 349.62,82.68 349.34,83.77 L 348.50 87.02 L 334.75 73.25 C327.19,65.67 321.00,58.99 321.00,58.41 C321.00,56.85 335.54,43.00 337.18,43.00 C337.94,43.00 340.96,45.42 343.88,48.38 L 349.19 53.76 L 346.29 57.00 L 343.39 60.25 L 340.76 57.13 C339.01,55.04 337.68,54.26 336.42,54.78 C337.48,54.15 338.48,54.17 339.00,55.01 C339.37,55.60 340.98,56.17 342.58,56.29 C344.99,56.46 345.56,56.07 345.84,54.05 C346.10,52.23 345.23,50.74 342.49,48.30 C340.45,46.48 337.89,45.00 336.80,45.00 C334.74,45.00 322.00,56.52 322.00,58.39 C322.00,59.46 344.97,82.93 346.06,82.98 C346.37,82.99 347.45,82.39 348.46,81.65 ZM 294.22 346.41 C304.28,336.45 306.33,333.91 306.74,330.90 C307.11,328.14 306.83,327.15 305.52,326.65 C303.86,326.01 301.62,327.18 297.28,331.35 C301.83,326.55 305.50,322.44 305.50,321.90 C305.50,320.66 281.64,296.68 279.77,296.01 C280.51,296.17 282.40,297.55 284.14,299.23 C299.28,313.79 305.44,318.88 306.69,317.85 C310.08,315.03 308.20,311.86 295.25,298.58 C292.68,295.94 290.20,293.43 288.05,291.28 C290.50,293.72 293.40,296.66 296.42,299.75 L 310.35 314.00 L 308.32 324.25 L 306.29 334.50 L 294.24 346.41 C287.65,352.92 281.61,358.62 280.77,359.11 C281.61,358.62 287.64,352.92 294.22,346.41 ZM 121.32 241.34 C122.40,240.26 119.92,238.00 117.63,237.98 C116.46,237.97 113.52,236.62 111.10,234.98 C106.52,231.88 104.52,231.34 103.54,232.94 C102.74,234.23 106.95,238.00 109.19,238.00 C110.18,238.00 111.00,238.46 111.00,239.03 C111.00,241.08 119.65,243.02 121.32,241.34 ZM 302.38 65.12 C307.55,59.90 308.07,59.00 307.06,57.12 C305.38,53.97 303.52,54.52 299.76,59.25 C298.93,60.28 298.20,61.22 297.55,62.08 C298.81,60.32 300.13,58.56 301.50,56.87 C304.62,53.02 305.53,52.88 307.76,55.89 L 309.84 58.70 L 299.42 69.08 C293.69,74.79 289.00,78.96 289.00,78.35 C289.00,76.45 291.01,72.21 294.02,67.37 C293.31,68.85 293.41,69.65 294.14,70.11 C294.72,70.48 295.13,70.74 295.57,70.79 C296.66,70.91 297.89,69.66 302.28,65.22 ZM 270.00 367.08 C270.00,366.58 270.28,365.44 270.62,364.56 C271.05,363.44 268.27,359.94 261.37,352.89 C250.72,342.04 248.97,340.69 246.61,341.60 C245.20,342.14 244.34,343.79 244.33,345.36 C244.20,344.24 244.31,342.81 244.67,341.01 L 245.55 336.57 L 259.52 350.86 C267.21,358.73 273.63,365.52 273.79,365.96 C273.95,366.40 273.46,366.99 272.70,367.29 C271.94,367.58 268.77,368.13 265.66,368.52 C260.03,369.23 258.81,368.59 261.20,366.20 C261.72,365.68 261.74,365.07 261.08,364.05 C263.89,366.96 265.52,367.96 267.25,367.98 C268.76,367.99 270.00,367.59 270.00,367.08 ZM 242.67 355.63 C242.59,356.64 242.75,357.59 243.18,358.36 C244.41,360.56 246.30,360.43 248.50,358.00 C249.72,356.65 250.81,356.01 252.08,356.21 C251.02,356.81 248.60,358.78 246.14,361.09 C243.20,363.86 240.62,365.95 240.41,365.75 C239.94,365.27 241.28,359.84 242.67,355.63 ZM 86.76 174.50 C93.61,170.06 101.08,166.26 110.00,162.55 C114.12,160.84 118.62,158.72 120.00,157.85 C121.44,156.94 128.24,155.52 136.00,154.51 C145.44,153.28 149.78,152.39 151.67,150.66 C150.27,152.12 147.70,152.98 143.58,153.47 C133.18,154.73 113.43,160.75 102.78,165.92 C96.19,169.11 91.16,171.76 86.76,174.50 ZM 161.73 98.00 C165.03,78.71 168.00,59.60 168.00,56.63 C168.00,51.65 168.94,47.28 171.04,42.50 C171.24,42.06 171.45,41.38 171.68,40.54 C169.23,55.23 165.25,78.21 161.73,98.00 ZM 49.43 210.67 C53.69,203.83 56.48,200.41 64.89,192.39 C56.00,200.88 53.43,204.28 46.84,214.89 C42.88,221.28 39.32,226.88 38.93,227.34 C38.28,228.11 38.79,224.61 40.25,218.00 L 42.52 218.00 C44.34,218.00 45.86,216.38 49.43,210.67 ZM 160.22 178.01 C170.89,177.26 186.07,176.83 208.00,176.62 L 226.62 176.43 C219.90,177.01 209.12,177.18 188.00,177.42 C174.74,177.57 166.30,177.72 160.22,178.01 ZM 350.92 70.52 C351.11,68.08 350.79,64.99 349.98,64.49 C349.42,64.14 347.54,65.05 345.82,66.50 L 342.67 69.15 L 342.41 68.89 L 347.25 64.37 C349.93,61.85 352.28,59.96 352.47,60.15 C352.87,60.58 351.85,66.74 350.92,70.52 ZM 191.37 215.27 C190.76,211.90 190.67,211.81 188.64,212.58 C185.64,213.73 187.06,216.23 191.68,217.93 C191.78,217.97 191.64,216.77 191.37,215.27 ZM 255.92 368.74 C256.15,368.88 254.39,369.00 252.01,369.00 C247.75,369.00 247.71,368.97 249.51,366.99 C251.25,365.07 251.42,365.06 253.41,366.73 C254.56,367.69 255.69,368.60 255.92,368.74 ZM 150.54 185.20 C152.26,185.13 153.53,185.19 153.74,185.41 C154.08,185.75 152.93,187.51 151.17,189.33 L 148.57 192.00 L 150.10 189.86 C151.98,187.22 152.02,185.62 150.54,185.20 ZM 51.16 160.53 C49.65,168.25 46.81,183.96 45.05,194.31 C45.27,190.77 47.17,180.27 51.16,160.53 ZM 286.09 95.10 L 286.81 91.86 L 300.54 78.68 C290.03,88.77 287.02,92.14 286.09,95.10 ZM 280.21 347.99 C280.98,347.78 285.78,343.16 291.00,337.86 C290.65,338.23 290.30,338.61 289.94,339.00 C285.41,343.95 281.05,348.00 280.26,348.00 C280.25,348.00 280.23,348.00 280.21,347.99 ZM 42.38 292.01 C44.54,282.98 49.07,268.84 52.96,258.58 C49.28,268.37 45.14,281.59 42.38,292.01 ZM 254.29 322.16 C254.40,322.52 259.75,328.25 266.26,335.00 C260.27,329.01 254.57,323.03 254.29,322.16 ZM 285.14 147.36 C285.24,147.25 285.34,147.15 285.45,147.05 L 287.68 144.96 L 288.85 145.88 C287.66,145.63 286.36,146.12 285.14,147.36 ZM 120.88 186.15 C126.81,183.97 133.27,182.19 140.63,180.66 C133.08,182.32 126.65,184.07 120.88,186.15 ZM 291.45 147.92 C292.27,148.54 292.78,148.85 293.29,148.83 C293.30,148.83 293.32,148.83 293.33,148.83 C292.53,149.10 292.00,148.81 291.50,148.01 C291.49,147.98 291.47,147.95 291.45,147.92 ZM 279.69 296.00 C278.91,296.11 272.34,302.55 266.07,309.01 C272.38,302.49 278.99,296.00 279.65,296.00 C279.67,296.00 279.68,296.00 279.69,296.00 ZM 245.26 347.82 C246.01,348.84 245.88,349.49 244.78,350.77 C244.68,350.88 244.59,350.99 244.50,351.10 C244.57,351.00 244.63,350.91 244.69,350.85 C245.69,349.70 245.86,348.98 245.26,347.82 ZM 40.90 215.11 C41.37,213.10 41.90,210.87 42.49,208.45 C42.19,209.87 41.89,211.19 41.62,212.25 ZM 315.25 65.14 C314.36,65.67 307.91,71.60 300.61,78.61 C308.13,71.39 314.69,65.34 315.21,65.14 C315.22,65.14 315.24,65.14 315.25,65.14 ZM 309.20 276.76 C307.95,277.63 307.24,277.54 305.96,276.74 C307.17,277.49 307.92,277.56 309.20,276.76 ZM 291.07 100.24 C291.25,100.01 291.48,99.72 291.76,99.38 L 290.82 100.69 C290.87,100.53 290.96,100.39 291.07,100.24 ZM 335.74 62.17 C333.17,59.45 333.13,58.76 334.13,57.16 C333.14,58.75 333.20,59.45 335.74,62.17 ZM 349.55 76.26 C349.46,75.39 349.51,74.59 349.67,74.07 C349.54,74.63 349.50,75.41 349.55,76.26 ZM 294.97 141.24 C295.13,141.41 295.28,141.57 295.42,141.73 L 298.34 144.97 L 295.42 141.74 C295.27,141.57 295.12,141.40 294.97,141.24 Z" fill="rgb(108,180,170)"/>
<path d="M 69.50 388.51 C63.96,389.66 34.89,390.29 19.15,389.99 C23.41,389.92 25.85,389.56 25.52,389.04 C25.20,388.51 26.03,382.09 27.38,374.79 C28.73,367.48 30.35,358.35 30.97,354.50 C33.63,337.94 36.25,324.00 37.99,317.15 C38.95,313.40 39.55,309.78 39.42,308.73 C39.89,308.09 40.85,305.89 42.75,301.33 C53.80,274.84 74.77,259.76 110.22,252.85 C119.18,251.10 126.81,250.74 169.50,250.00 C196.45,249.54 220.98,248.72 224.00,248.17 C255.34,242.50 276.28,232.34 296.38,213.07 C322.25,188.27 340.64,151.96 350.63,106.00 C352.83,95.86 362.00,40.97 362.00,37.93 C362.00,37.07 356.98,36.88 342.75,37.21 C335.00,37.39 330.32,37.51 326.96,37.81 C327.89,37.66 328.82,37.54 329.75,37.45 L 337.00 36.74 L 337.00 33.00 C337.00,30.94 337.28,27.83 337.63,26.09 L 338.27 22.92 L 359.08 23.21 C369.64,23.36 378.11,23.16 379.01,22.77 C379.28,23.84 378.35,31.79 376.87,41.00 C369.93,83.93 368.70,91.22 366.35,103.00 C357.81,145.85 342.53,181.60 321.67,207.53 C302.96,230.78 278.09,248.51 253.00,256.45 C232.85,262.84 225.56,263.55 163.00,265.23 C152.46,265.52 151.05,265.79 146.15,268.48 C139.30,272.25 132.64,279.68 130.17,286.30 C129.10,289.16 126.59,300.73 124.59,312.00 C117.53,351.80 115.81,356.22 102.03,370.06 C92.22,379.91 81.43,386.02 69.50,388.51 ZM 270.93 388.94 C264.50,389.98 216.79,390.46 215.82,389.49 C215.29,388.96 215.79,385.88 223.01,345.00 C225.29,332.08 229.05,310.52 231.36,297.09 L 235.57 272.69 L 243.44 270.83 C247.76,269.81 251.39,269.09 251.49,269.24 C251.59,269.38 250.16,277.83 248.32,288.00 C243.24,316.02 233.00,373.92 233.00,374.63 C233.00,374.98 241.44,375.03 251.75,374.75 C273.18,374.16 279.45,372.74 289.57,366.19 C300.08,359.40 307.33,349.80 311.44,337.25 C312.39,334.37 317.76,304.44 323.39,270.75 L 333.62 209.50 L 337.64 204.21 C339.86,201.30 344.10,194.67 347.08,189.49 C350.06,184.31 352.75,180.05 353.05,180.04 C353.90,179.98 327.39,336.83 325.59,342.50 C323.09,350.41 316.73,360.92 310.05,368.21 C299.89,379.29 286.42,386.43 270.93,388.94 ZM 70.88 260.33 C67.37,262.33 62.30,265.64 59.62,267.68 C55.03,271.16 54.79,271.24 55.48,268.94 C62.44,245.84 82.14,215.92 94.82,209.19 C109.10,201.60 125.58,199.34 135.09,203.66 C139.56,205.69 147.00,212.14 147.00,213.99 C147.00,215.91 139.27,222.39 134.12,224.77 C126.31,228.39 115.22,227.65 101.86,222.63 C96.56,220.63 92.00,219.00 91.72,219.00 C91.44,219.00 92.06,221.74 93.11,225.10 C95.37,232.35 96.44,243.37 95.27,247.36 C94.55,249.82 93.23,250.67 85.84,253.45 C81.12,255.23 74.39,258.32 70.88,260.33 ZM 300.45 201.06 C299.48,202.13 297.75,202.96 296.60,202.91 C293.80,202.79 273.37,194.37 269.53,191.76 C265.97,189.34 252.00,175.87 252.00,174.86 C252.00,174.48 253.57,173.19 255.49,172.00 L 258.99 169.85 L 264.24 172.38 C267.13,173.77 270.74,175.20 272.25,175.56 C274.79,176.17 275.00,175.98 275.00,173.21 C275.00,171.43 273.57,168.08 271.49,164.98 L 267.98 159.77 L 272.17 152.99 L 274.84 154.89 C276.30,155.94 280.73,160.14 284.69,164.23 C292.27,172.07 294.58,176.22 299.44,190.81 C302.09,198.76 302.13,199.20 300.45,201.06 ZM 196.26 241.60 C196.03,240.39 191.68,235.32 185.75,229.29 C191.86,235.31 196.75,239.86 197.00,239.74 C197.27,239.61 203.10,233.75 209.95,226.72 L 222.40 213.93 L 196.53 188.00 L 183.76 200.74 C181.20,203.30 178.80,205.72 176.79,207.79 C178.72,205.79 181.00,203.47 183.44,201.01 C194.54,189.84 195.81,188.21 195.32,185.75 C194.85,183.43 194.26,183.00 191.55,183.00 C188.96,183.00 187.68,183.83 184.97,187.25 L 188.33 183.00 L 203.52 183.00 L 234.48 214.00 L 219.50 229.00 L 204.53 244.00 L 192.07 244.00 C196.44,244.00 196.69,243.85 196.26,241.60 ZM 276.12 222.33 C272.22,225.20 268.76,226.98 267.14,226.95 C260.79,226.84 250.58,221.52 246.62,216.27 C244.79,213.84 244.80,213.81 248.13,210.37 C249.97,208.47 253.85,205.75 256.75,204.33 C265.31,200.15 277.72,200.76 291.67,206.06 C294.18,207.02 294.21,207.11 292.48,209.03 C291.13,210.51 289.31,211.02 285.10,211.10 C274.39,211.29 270.66,214.36 278.48,216.55 L 282.46 217.67 ZM 308.80 190.61 C307.53,192.47 306.18,193.99 305.79,193.99 C304.28,194.01 302.58,185.12 302.54,177.00 C302.51,169.74 302.89,167.70 305.21,162.99 C306.70,159.96 309.55,155.91 311.54,153.99 L 315.17 150.50 L 320.08 155.82 C322.79,158.75 325.00,161.84 325.00,162.69 C325.00,165.30 316.80,178.82 314.92,179.31 C313.91,179.57 312.72,181.37 312.13,183.50 C311.56,185.56 310.06,188.75 308.80,190.61 ZM 288.00 329.50 C283.90,333.62 280.03,337.00 279.40,337.00 C277.94,337.00 265.00,322.93 265.00,321.34 C265.00,320.22 278.81,307.00 279.99,307.00 C280.30,307.00 283.90,310.38 288.00,314.50 L 295.45 322.00 ZM 322.78 109.73 C318.80,113.73 315.30,117.00 315.00,117.00 C314.70,117.00 311.10,113.62 307.00,109.50 L 299.55 102.00 L 307.00 94.50 C311.10,90.38 314.84,87.00 315.32,87.00 C316.60,87.00 330.00,100.14 330.00,101.39 C330.00,101.97 326.75,105.73 322.78,109.73 ZM 319.47 260.42 C319.08,263.49 318.45,266.00 318.05,266.00 C315.71,266.00 300.00,247.42 300.00,244.65 C300.00,244.41 304.50,240.31 310.01,235.54 C318.01,228.61 320.45,227.01 322.14,227.54 C324.09,228.16 324.21,228.71 323.64,234.13 C322.77,242.50 322.00,245.00 320.30,245.00 C319.09,245.00 318.94,245.93 319.49,249.92 C319.86,252.62 319.85,257.35 319.47,260.42 ZM 253.04 189.08 L 255.89 192.65 L 247.68 200.82 L 239.46 208.99 L 227.23 196.73 C220.50,189.99 215.00,184.14 215.00,183.74 C215.00,183.33 218.66,183.00 223.12,183.00 C230.27,183.00 231.09,183.18 229.98,184.52 C228.63,186.15 228.72,186.31 235.73,193.97 L 238.95 197.50 L 244.41 192.04 L 241.71 189.22 C238.37,185.73 238.35,184.96 241.51,181.99 L 244.01 179.64 L 247.10 182.57 C248.80,184.18 251.47,187.11 253.04,189.08 ZM 224.10 241.98 C217.80,243.18 217.00,243.22 217.00,242.35 C217.00,241.22 238.33,220.00 239.47,220.00 C240.07,220.00 243.65,223.12 247.43,226.92 L 254.30 233.85 L 250.53 235.42 C245.51,237.52 245.28,237.48 242.29,233.93 L 239.70 230.86 L 234.59 235.91 C230.35,240.10 228.56,241.13 224.10,241.98 ZM 284.95 267.44 C282.64,269.95 280.41,272.00 280.00,272.00 C279.04,272.00 270.99,263.29 271.02,262.27 C271.03,261.65 288.93,251.38 292.11,250.17 C293.18,249.77 292.20,255.34 290.44,259.69 C289.73,261.44 287.26,264.93 284.95,267.44 ZM 83.50 245.51 L 85.23 249.50 L 86.83 246.00 C88.74,241.79 88.89,228.93 87.07,224.50 L 85.84 221.50 L 84.26 224.50 C81.81,229.12 81.40,240.66 83.50,245.51 ZM 97.01 215.64 C101.40,217.28 116.39,217.01 118.15,215.25 C119.15,214.25 119.15,213.75 118.15,212.75 C116.35,210.95 99.26,211.08 96.01,212.92 L 93.52 214.33 ZM 319.50 49.00 C317.35,51.20 315.31,53.00 314.95,53.00 C314.60,53.00 313.50,52.11 312.52,51.02 C310.77,49.09 310.84,49.00 315.45,47.02 C322.83,43.86 323.98,44.41 319.50,49.00 ZM 355.00 45.50 C355.00,46.88 354.63,48.00 354.18,48.00 C353.73,48.00 352.38,46.88 351.19,45.50 L 349.01 43.00 L 352.01 43.00 C354.53,43.00 355.00,43.39 355.00,45.50 ZM 51.30 263.14 C51.86,261.56 52.42,260.03 52.96,258.58 C54.50,254.53 55.93,251.09 57.08,248.80 C58.50,245.94 59.95,243.20 61.41,240.57 C57.71,247.48 54.34,255.01 51.30,263.14 ZM 303.95 47.03 C296.06,52.57 290.11,60.03 286.24,69.21 C288.32,63.93 290.80,60.14 294.32,55.75 C296.90,52.54 300.20,49.59 303.95,47.03 ZM 281.22 88.04 C280.06,94.09 278.69,101.85 277.51,109.00 C278.90,100.54 280.09,93.70 281.22,88.04 ZM 42.38 292.01 C42.85,290.23 43.37,288.36 43.91,286.43 C43.26,288.82 42.63,291.18 42.06,293.42 C42.16,292.96 42.27,292.50 42.38,292.01 ZM 171.00 214.09 C171.13,214.43 173.88,217.35 177.84,221.38 C173.79,217.29 171.00,214.33 171.00,214.10 C171.00,214.10 171.00,214.09 171.00,214.09 ZM 40.03 301.88 C40.14,301.32 40.26,300.73 40.40,300.12 C40.45,299.91 40.51,299.70 40.56,299.49 C40.37,300.33 40.19,301.13 40.03,301.88 Z" fill="rgb(134,155,80)"/>
<path d="M 0.00 203.00 L 0.00 0.00 L 196.50 0.00 L 393.00 0.00 L 393.00 203.00 L 393.00 406.00 L 196.50 406.00 L 0.00 406.00 L 0.00 203.00 ZM 69.50 388.51 C81.43,386.02 92.22,379.91 102.03,370.06 C115.81,356.22 117.53,351.80 124.59,312.00 C126.59,300.73 129.10,289.16 130.17,286.30 C132.64,279.68 139.30,272.25 146.15,268.48 C151.05,265.79 152.46,265.52 163.00,265.23 C225.56,263.55 232.85,262.84 253.00,256.45 C278.09,248.51 302.96,230.78 321.67,207.53 C342.53,181.60 357.81,145.85 366.35,103.00 C368.70,91.22 369.93,83.93 376.87,41.00 C378.42,31.38 379.36,23.12 378.96,22.67 C378.56,22.21 365.92,22.02 350.87,22.25 C320.10,22.71 317.40,23.16 303.16,30.19 C288.94,37.20 277.11,50.67 270.97,66.85 C268.77,72.64 267.16,80.36 262.50,107.50 C256.80,140.67 255.58,143.85 244.95,153.20 C234.68,162.25 234.60,162.26 188.50,162.99 C151.32,163.57 147.83,163.78 139.00,165.93 C116.55,171.40 112.31,173.05 95.76,182.78 C80.59,191.69 70.51,201.53 55.61,222.00 C49.21,230.78 37.54,255.90 33.08,270.50 C31.91,274.35 30.53,278.85 30.03,280.50 C27.95,287.31 24.83,300.66 23.98,306.38 C23.48,309.75 22.15,317.45 21.01,323.50 C19.88,329.55 17.79,341.02 16.38,349.00 C14.97,356.98 12.74,369.10 11.41,375.94 C10.08,382.79 9.00,388.75 9.00,389.19 C9.00,390.70 61.83,390.11 69.50,388.51 ZM 270.93 388.94 C286.42,386.43 299.89,379.29 310.05,368.21 C316.73,360.92 323.09,350.41 325.59,342.50 C327.39,336.83 353.90,179.98 353.05,180.04 C352.75,180.05 350.06,184.31 347.08,189.49 C344.10,194.67 339.86,201.30 337.64,204.21 L 333.62 209.50 L 323.39 270.75 C317.76,304.44 312.39,334.37 311.44,337.25 C307.33,349.80 300.08,359.40 289.57,366.19 C279.45,372.74 273.18,374.16 251.75,374.75 C241.44,375.03 233.00,374.98 233.00,374.63 C233.00,373.92 243.24,316.02 248.32,288.00 C250.16,277.83 251.59,269.38 251.49,269.24 C251.39,269.09 247.76,269.81 243.44,270.83 L 235.57 272.69 L 231.36 297.09 C229.05,310.52 225.29,332.08 223.01,345.00 C215.79,385.88 215.29,388.96 215.82,389.49 C216.79,390.46 264.50,389.98 270.93,388.94 ZM 255.92 368.74 C255.69,368.60 254.56,367.69 253.41,366.73 C251.42,365.06 251.25,365.07 249.51,366.99 C247.71,368.97 247.75,369.00 252.01,369.00 C254.39,369.00 256.15,368.88 255.92,368.74 ZM 272.70 367.29 C273.46,366.99 273.95,366.40 273.79,365.96 C273.63,365.52 267.21,358.73 259.52,350.86 L 245.55 336.57 L 244.67 341.01 C244.07,344.06 244.16,346.02 244.97,347.32 C245.89,348.79 245.83,349.54 244.69,350.85 C243.28,352.46 239.68,365.01 240.41,365.75 C240.62,365.95 243.20,363.86 246.14,361.09 C249.09,358.32 251.97,356.04 252.54,356.03 C253.11,356.01 255.57,358.02 258.00,360.50 C261.44,364.00 262.14,365.26 261.20,366.20 C258.81,368.59 260.03,369.23 265.66,368.52 C268.77,368.13 271.94,367.58 272.70,367.29 ZM 294.24 346.41 L 306.29 334.50 L 308.32 324.25 L 310.35 314.00 L 296.42 299.75 C288.77,291.91 281.88,285.11 281.13,284.63 C280.13,284.00 275.81,287.69 265.31,298.13 C257.37,306.03 250.48,313.20 250.01,314.05 C249.53,314.90 248.83,318.41 248.44,321.84 L 247.73 328.09 L 263.53 344.00 C274.97,355.52 279.73,359.69 280.76,359.11 C281.55,358.67 287.61,352.96 294.24,346.41 ZM 313.70 292.75 C314.86,286.56 315.62,281.30 315.39,281.06 C315.15,280.83 313.17,282.38 310.98,284.52 L 306.99 288.42 L 302.01 283.51 L 297.03 278.60 L 299.19 276.30 C301.28,274.08 304.00,273.20 304.00,274.76 C304.00,275.18 304.88,276.07 305.96,276.74 C307.62,277.78 308.32,277.62 310.47,275.73 L 313.01 273.50 L 307.92 267.75 C305.12,264.59 302.32,262.00 301.69,262.00 C299.98,262.00 286.00,276.22 286.00,277.96 C286.00,279.33 309.71,304.00 311.03,304.00 C311.34,304.00 312.54,298.94 313.70,292.75 ZM 274.00 277.58 C274.00,277.06 271.33,274.02 268.06,270.83 C262.98,265.85 261.80,265.14 259.81,265.87 C256.29,267.16 256.20,271.55 259.62,275.13 L 262.40 278.02 L 258.33 282.26 C255.08,285.66 254.05,287.68 253.14,292.42 C252.51,295.67 252.00,298.81 252.00,299.40 C252.00,299.99 256.95,295.53 263.00,289.50 C269.05,283.47 274.00,278.11 274.00,277.58 ZM 284.95 267.44 C287.26,264.93 289.73,261.44 290.44,259.69 C292.20,255.34 293.18,249.77 292.11,250.17 C288.93,251.38 271.03,261.65 271.02,262.27 C270.99,263.29 279.04,272.00 280.00,272.00 C280.41,272.00 282.64,269.95 284.95,267.44 ZM 319.47 260.42 C319.85,257.35 319.86,252.62 319.49,249.92 C318.94,245.93 319.09,245.00 320.30,245.00 C322.00,245.00 322.77,242.50 323.64,234.13 C324.21,228.71 324.09,228.16 322.14,227.54 C320.45,227.01 318.01,228.61 310.01,235.54 C304.50,240.31 300.00,244.41 300.00,244.65 C300.00,247.42 315.71,266.00 318.05,266.00 C318.45,266.00 319.08,263.49 319.47,260.42 ZM 46.84 214.89 C54.35,202.79 56.63,200.07 69.01,188.50 C80.03,178.20 86.82,173.66 102.78,165.92 C113.43,160.75 133.18,154.73 143.58,153.47 C150.42,152.65 153.00,150.84 153.00,146.87 C153.00,145.32 153.88,139.88 154.97,134.78 C157.90,120.92 174.00,28.58 174.00,25.59 L 174.00 23.00 L 150.75 23.00 C116.76,23.00 107.33,25.04 93.50,35.36 C76.49,48.05 67.54,64.35 64.05,89.00 C63.54,92.57 62.63,97.75 62.02,100.50 C60.52,107.30 58.46,118.63 55.49,136.50 C54.12,144.75 52.35,154.65 51.57,158.50 C47.06,180.75 45.06,191.88 45.03,194.86 C45.01,196.71 43.88,202.79 42.51,208.36 C39.41,221.03 38.01,228.43 38.93,227.34 C39.32,226.88 42.88,221.28 46.84,214.89 ZM 39.00 308.04 C39.00,304.19 44.72,282.21 49.00,269.59 C58.40,241.92 71.43,220.61 87.57,206.54 C104.91,191.41 117.99,185.28 144.50,179.84 C153.12,178.08 159.13,177.74 188.00,177.42 C228.11,176.97 230.95,176.75 239.42,173.57 C255.49,167.52 266.72,155.05 271.90,137.50 C273.04,133.65 275.56,120.82 277.51,109.00 C279.45,97.18 281.95,83.68 283.06,79.02 C287.43,60.62 298.62,47.50 315.71,40.73 C323.25,37.75 324.11,37.64 342.75,37.21 C356.98,36.88 362.00,37.07 362.00,37.93 C362.00,40.97 352.83,95.86 350.63,106.00 C340.64,151.96 322.25,188.27 296.38,213.07 C276.28,232.34 255.34,242.50 224.00,248.17 C220.98,248.72 196.45,249.54 169.50,250.00 C126.81,250.74 119.18,251.10 110.22,252.85 C74.77,259.76 53.80,274.84 42.75,301.33 C39.50,309.11 39.00,310.01 39.00,308.04 ZM 70.88 260.33 C74.39,258.32 81.12,255.23 85.84,253.45 C93.23,250.67 94.55,249.82 95.27,247.36 C96.44,243.37 95.37,232.35 93.11,225.10 C92.06,221.74 91.44,219.00 91.72,219.00 C92.00,219.00 96.56,220.63 101.86,222.63 C115.22,227.65 126.31,228.39 134.12,224.77 C139.27,222.39 147.00,215.91 147.00,213.99 C147.00,212.14 139.56,205.69 135.09,203.66 C125.58,199.34 109.10,201.60 94.82,209.19 C82.14,215.92 62.44,245.84 55.48,268.94 C54.79,271.24 55.03,271.16 59.62,267.68 C62.30,265.64 67.37,262.33 70.88,260.33 ZM 110.46 246.92 C113.67,246.33 119.84,245.54 124.17,245.17 C128.50,244.80 132.09,244.05 132.14,243.50 C132.33,241.59 120.87,234.75 110.26,230.42 C104.39,228.03 99.42,226.25 99.21,226.46 C98.99,226.67 99.54,230.30 100.41,234.53 C101.28,238.76 102.00,243.52 102.00,245.11 C102.00,248.39 102.25,248.44 110.46,246.92 ZM 153.35 243.32 C153.73,242.94 152.60,241.15 150.84,239.34 C147.72,236.12 147.69,236.00 149.48,234.02 C150.49,232.91 151.79,232.00 152.37,232.00 C153.89,232.00 163.00,241.18 163.00,242.71 C163.00,243.65 165.10,244.00 170.75,244.00 L 178.49 244.00 L 165.75 231.26 L 153.00 218.51 L 144.25 227.30 L 135.50 236.08 L 139.71 240.04 C143.29,243.41 144.58,244.00 148.29,244.00 C150.70,244.00 152.97,243.69 153.35,243.32 ZM 219.50 229.00 L 234.48 214.00 L 219.00 198.50 L 203.52 183.00 L 195.93 183.00 L 188.33 183.00 L 184.97 187.25 C183.11,189.59 176.51,196.38 170.30,202.35 C164.08,208.31 159.00,213.68 159.00,214.27 C159.00,214.86 165.39,221.79 173.21,229.67 L 187.41 244.00 L 195.97 244.00 L 204.53 244.00 L 219.50 229.00 ZM 224.10 241.98 C228.56,241.13 230.35,240.10 234.59,235.91 L 239.70 230.86 L 242.29 233.93 C245.28,237.48 245.51,237.52 250.53,235.42 L 254.30 233.85 L 247.43 226.92 C243.65,223.12 240.07,220.00 239.47,220.00 C238.33,220.00 217.00,241.22 217.00,242.35 C217.00,243.22 217.80,243.18 224.10,241.98 ZM 276.12 222.33 L 282.46 217.67 L 278.48 216.55 C270.66,214.36 274.39,211.29 285.10,211.10 C289.31,211.02 291.13,210.51 292.48,209.03 C294.21,207.11 294.18,207.02 291.67,206.06 C277.72,200.76 265.31,200.15 256.75,204.33 C253.85,205.75 249.97,208.47 248.13,210.37 C244.80,213.81 244.79,213.84 246.62,216.27 C250.58,221.52 260.79,226.84 267.14,226.95 C268.76,226.98 272.22,225.20 276.12,222.33 ZM 166.51 195.96 L 179.50 182.93 L 171.50 183.21 C164.96,183.45 163.54,183.78 163.75,185.04 C163.88,185.89 161.53,189.01 158.52,191.98 L 153.04 197.39 L 150.51 195.01 L 147.97 192.62 L 151.17 189.33 C152.93,187.51 154.08,185.75 153.74,185.41 C153.40,185.07 150.44,185.10 147.17,185.48 C142.39,186.03 140.65,186.75 138.40,189.11 L 135.59 192.04 L 144.02 200.52 C148.66,205.18 152.70,209.00 152.99,209.00 C153.29,209.00 159.37,203.13 166.51,195.96 ZM 253.04 189.08 C251.47,187.11 248.80,184.18 247.10,182.57 L 244.01 179.64 L 241.51 181.99 C238.35,184.96 238.37,185.73 241.71,189.22 L 244.41 192.04 L 241.68 194.77 L 238.95 197.50 L 235.73 193.97 C228.72,186.31 228.63,186.15 229.98,184.52 C231.09,183.18 230.27,183.00 223.12,183.00 C218.66,183.00 215.00,183.33 215.00,183.74 C215.00,184.14 220.50,189.99 227.23,196.73 L 239.46 208.99 L 247.68 200.82 L 255.89 192.65 L 253.04 189.08 ZM 300.45 201.06 C302.13,199.20 302.09,198.76 299.44,190.81 C294.58,176.22 292.27,172.07 284.69,164.23 C280.73,160.14 276.30,155.94 274.84,154.89 L 272.17 152.99 L 270.08 156.38 L 267.98 159.77 L 271.49 164.98 C273.57,168.08 275.00,171.43 275.00,173.21 C275.00,175.98 274.79,176.17 272.25,175.56 C270.74,175.20 267.13,173.77 264.24,172.38 L 258.99 169.85 L 255.49 172.00 C253.57,173.19 252.00,174.48 252.00,174.86 C252.00,175.87 265.97,189.34 269.53,191.76 C273.37,194.37 293.80,202.79 296.60,202.91 C297.75,202.96 299.48,202.13 300.45,201.06 ZM 308.80 190.61 C310.06,188.75 311.56,185.56 312.13,183.50 C312.72,181.37 313.91,179.57 314.92,179.31 C316.80,178.82 325.00,165.30 325.00,162.69 C325.00,161.84 322.79,158.75 320.08,155.82 L 315.17 150.50 L 311.54 153.99 C309.55,155.91 306.70,159.96 305.21,162.99 C302.89,167.70 302.51,169.74 302.54,177.00 C302.58,185.12 304.28,194.01 305.79,193.99 C306.18,193.99 307.53,192.47 308.80,190.61 ZM 301.78 153.73 C305.75,149.73 308.98,146.01 308.95,145.48 C308.92,144.94 302.89,138.23 295.54,130.57 L 282.18 116.64 L 281.52 121.57 C280.79,127.03 277.68,140.41 276.43,143.45 C275.67,145.31 275.77,145.30 278.57,143.29 C280.18,142.13 282.82,139.79 284.44,138.09 C286.05,136.39 287.76,135.00 288.23,135.00 C289.12,135.00 290.50,136.29 295.42,141.74 L 298.34 144.97 L 296.02 146.98 C293.18,149.45 293.39,149.45 290.25,146.98 L 287.68 144.96 L 285.45 147.05 C284.09,148.32 283.42,149.88 283.72,151.04 C284.23,152.99 292.30,161.00 293.75,161.00 C294.19,161.00 297.80,157.73 301.78,153.73 ZM 331.50 149.25 C336.83,134.28 339.01,127.68 338.72,127.39 C338.54,127.21 334.41,131.07 329.53,135.97 L 320.66 144.88 L 324.40 149.44 C326.45,151.95 328.51,154.00 328.97,154.00 C329.43,154.00 330.57,151.86 331.50,149.25 ZM 329.65 125.75 L 343.77 111.50 L 345.36 103.50 L 346.94 95.50 L 331.55 80.14 C323.08,71.69 315.73,64.94 315.21,65.14 C314.69,65.34 308.09,71.43 300.54,78.68 L 286.81 91.86 L 284.96 100.17 L 283.11 108.47 L 298.77 124.24 C307.37,132.91 314.67,140.00 314.97,140.00 C315.28,140.00 321.88,133.59 329.65,125.75 ZM 349.67 77.38 C349.39,75.65 349.53,73.85 349.97,73.37 C350.83,72.45 353.03,60.75 352.47,60.15 C352.28,59.96 349.93,61.85 347.25,64.37 L 342.36 68.94 L 337.59 64.09 C333.25,59.68 332.94,59.07 334.14,57.15 C336.24,53.79 337.95,53.79 340.76,57.13 L 343.39 60.25 L 346.29 57.00 L 349.19 53.76 L 343.88 48.38 C340.96,45.42 337.94,43.00 337.18,43.00 C335.54,43.00 321.00,56.85 321.00,58.41 C321.00,58.99 327.19,65.67 334.75,73.25 L 348.50 87.02 L 349.34 83.77 C349.80,81.98 349.95,79.10 349.67,77.38 ZM 307.76 55.89 C305.53,52.88 304.62,53.02 301.50,56.87 C294.82,65.11 289.00,75.12 289.00,78.35 C289.00,78.96 293.69,74.79 299.42,69.08 L 309.84 58.70 L 307.76 55.89 ZM 319.50 49.00 C323.98,44.41 322.83,43.86 315.45,47.02 C310.84,49.00 310.77,49.09 312.52,51.02 C313.50,52.11 314.60,53.00 314.95,53.00 C315.31,53.00 317.35,51.20 319.50,49.00 ZM 355.00 45.50 C355.00,43.39 354.53,43.00 352.01,43.00 L 349.01 43.00 L 351.19 45.50 C352.38,46.88 353.73,48.00 354.18,48.00 C354.63,48.00 355.00,46.88 355.00,45.50 ZM 266.66 335.41 C259.97,328.49 254.40,322.53 254.29,322.16 C253.95,321.13 278.37,296.00 279.71,296.00 C280.96,296.00 305.50,320.64 305.50,321.90 C305.50,323.28 281.50,348.00 280.16,348.00 C279.43,348.00 273.35,342.34 266.66,335.41 ZM 288.00 329.50 L 295.45 322.00 L 288.00 314.50 C283.90,310.38 280.30,307.00 279.99,307.00 C278.81,307.00 265.00,320.22 265.00,321.34 C265.00,322.93 277.94,337.00 279.40,337.00 C280.03,337.00 283.90,333.62 288.00,329.50 ZM 83.50 245.51 C81.40,240.66 81.81,229.12 84.26,224.50 L 85.84 221.50 L 87.07 224.50 C88.89,228.93 88.74,241.79 86.83,246.00 L 85.23 249.50 L 83.50 245.51 ZM 97.01 215.64 L 93.52 214.33 L 96.01 212.92 C99.26,211.08 116.35,210.95 118.15,212.75 C119.15,213.75 119.15,214.25 118.15,215.25 C116.39,217.01 101.40,217.28 97.01,215.64 ZM 183.75 227.32 C176.74,220.36 171.00,214.39 171.00,214.07 C171.00,213.74 176.74,207.74 183.76,200.74 L 196.53 188.00 L 209.47 200.97 L 222.40 213.93 L 209.95 226.72 C203.10,233.75 197.27,239.61 197.00,239.74 C196.73,239.87 190.76,234.28 183.75,227.32 ZM 212.00 213.96 C212.00,213.64 208.36,210.08 203.91,206.04 L 195.82 198.70 L 188.17 206.34 L 180.53 213.98 L 188.49 221.99 L 196.45 230.00 L 204.23 222.27 C208.50,218.02 212.00,214.28 212.00,213.96 ZM 302.17 114.98 L 289.85 102.02 L 291.85 99.26 C292.96,97.74 298.62,91.78 304.43,86.02 L 315.00 75.53 L 328.01 88.51 C335.16,95.64 340.89,101.79 340.75,102.17 C340.28,103.48 316.05,128.00 315.27,127.96 C314.85,127.94 308.95,122.10 302.17,114.98 ZM 322.78 109.73 C326.75,105.73 330.00,101.97 330.00,101.39 C330.00,100.14 316.60,87.00 315.32,87.00 C314.84,87.00 311.10,90.38 307.00,94.50 L 299.55 102.00 L 307.00 109.50 C311.10,113.62 314.70,117.00 315.00,117.00 C315.30,117.00 318.80,113.73 322.78,109.73 Z" fill="rgb(245,248,246)"/>
</g>
</svg>